<svg xmlns="http://www.w3.org/2000/svg" viewBox="0 0 1024 1024"><g id="Capa_2" data-name="Capa 2"><g id="Etiquetas"><rect width="1024" height="1024" style="fill:none"/></g><g id="CollageStyle"><path d="M488,125V470H131V187.47A62.47,62.47,0,0,1,193.47,125Z" style="fill:#eb98c9"/><rect x="131" y="496" width="357" height="136" style="fill:#eb98c9"/><path d="M131,658H488V892H193.47A62.47,62.47,0,0,1,131,829.53Z" style="fill:#eb98c9"/><path d="M898,353V829.53A62.47,62.47,0,0,1,835.53,892H514V353H898Z" style="fill:#eb98c9"/><path d="M897,327H514V125H835.53A62.47,62.47,0,0,1,898,187.47V327" style="fill:#eb98c9"/></g><g id="Capa_7" data-name="Capa 7"><path d="M658.88,530.1V696.6h21.75V629.1c36.13,6.85,68.24-6.85,77.87-28.6a56.72,56.72,0,0,0,3-34c-1.08-4.89-3.26-14.41-11-23-11.22-12.45-26.61-14.65-36-16-6.73-1-13.16-.64-26,0C676.21,528.12,666,529.2,658.88,530.1Z" style="fill:#fff"/><path d="M680.5,545.5v66a138,138,0,0,0,30,0c8.36-.93,11.13-2.06,13-3,11.53-5.83,15.23-18.4,16-21a33.5,33.5,0,0,0,0-21,31.61,31.61,0,0,0-11-15c-2.08-1.52-6.33-4.2-17-6A95.16,95.16,0,0,0,680.5,545.5Z" style="fill:#eb98c9"/></g></g></svg>